<svg width="430" height="241" viewBox="0 0 430 241" fill="none" xmlns="http://www.w3.org/2000/svg">
<circle cx="215" cy="120.028" r="120" fill="black"/>
<g clip-path="url(#clip0_1_39)">
<path d="M148 66.0281H284V168.028H148V66.0281Z" stroke="white" stroke-width="6"/>
<path d="M163.154 100.278C160.588 100.278 158.271 99.7781 156.204 98.7781C154.138 97.7781 152.354 96.4281 150.854 94.7281C149.354 92.9948 148.188 91.0614 147.354 88.9281C146.554 86.7614 146.154 84.5448 146.154 82.2781C146.154 79.9114 146.588 77.6614 147.454 75.5281C148.321 73.3614 149.521 71.4447 151.054 69.7781C152.588 68.0781 154.388 66.7447 156.454 65.7781C158.554 64.7781 160.821 64.2781 163.254 64.2781C165.788 64.2781 168.088 64.7947 170.154 65.8281C172.254 66.8614 174.038 68.2447 175.505 69.9781C177.005 71.7114 178.154 73.6448 178.954 75.7781C179.788 77.9114 180.204 80.0948 180.204 82.3281C180.204 84.6948 179.771 86.9614 178.904 89.1281C178.071 91.2614 176.888 93.1781 175.354 94.8781C173.821 96.5448 172.004 97.8614 169.904 98.8281C167.838 99.7948 165.588 100.278 163.154 100.278ZM151.854 82.2781C151.854 83.9448 152.121 85.5614 152.654 87.1281C153.188 88.6948 153.938 90.0948 154.904 91.3281C155.904 92.5281 157.104 93.4781 158.504 94.1781C159.904 94.8781 161.471 95.2281 163.204 95.2281C165.004 95.2281 166.604 94.8614 168.004 94.1281C169.404 93.3948 170.571 92.4114 171.504 91.1781C172.471 89.9114 173.204 88.5114 173.704 86.9781C174.204 85.4114 174.454 83.8448 174.454 82.2781C174.454 80.6114 174.188 79.0114 173.654 77.4781C173.154 75.9114 172.404 74.5281 171.404 73.3281C170.404 72.0947 169.205 71.1281 167.805 70.4281C166.438 69.7281 164.904 69.3781 163.204 69.3781C161.404 69.3781 159.804 69.7447 158.404 70.4781C157.004 71.2114 155.821 72.1947 154.854 73.4281C153.888 74.6614 153.138 76.0448 152.604 77.5781C152.104 79.1114 151.854 80.6781 151.854 82.2781ZM231.152 64.5281V100.028H225.502V84.3781H207.602V100.028H202.002V64.5281H207.602V79.3781H225.502V64.5281H231.152ZM269.91 100.278C267.344 100.278 265.027 99.7781 262.96 98.7781C260.894 97.7781 259.11 96.4281 257.61 94.7281C256.11 92.9948 254.944 91.0614 254.11 88.9281C253.31 86.7614 252.91 84.5448 252.91 82.2781C252.91 79.9114 253.344 77.6614 254.21 75.5281C255.077 73.3614 256.277 71.4447 257.81 69.7781C259.344 68.0781 261.144 66.7447 263.21 65.7781C265.31 64.7781 267.577 64.2781 270.01 64.2781C272.544 64.2781 274.844 64.7947 276.91 65.8281C279.01 66.8614 280.794 68.2447 282.26 69.9781C283.76 71.7114 284.91 73.6448 285.71 75.7781C286.544 77.9114 286.96 80.0948 286.96 82.3281C286.96 84.6948 286.527 86.9614 285.66 89.1281C284.827 91.2614 283.644 93.1781 282.11 94.8781C280.577 96.5448 278.76 97.8614 276.66 98.8281C274.594 99.7948 272.344 100.278 269.91 100.278ZM258.61 82.2781C258.61 83.9448 258.877 85.5614 259.41 87.1281C259.944 88.6948 260.694 90.0948 261.66 91.3281C262.66 92.5281 263.86 93.4781 265.26 94.1781C266.66 94.8781 268.227 95.2281 269.96 95.2281C271.76 95.2281 273.36 94.8614 274.76 94.1281C276.16 93.3948 277.327 92.4114 278.26 91.1781C279.227 89.9114 279.96 88.5114 280.46 86.9781C280.96 85.4114 281.21 83.8448 281.21 82.2781C281.21 80.6114 280.944 79.0114 280.41 77.4781C279.91 75.9114 279.16 74.5281 278.16 73.3281C277.16 72.0947 275.96 71.1281 274.56 70.4281C273.194 69.7281 271.66 69.3781 269.96 69.3781C268.16 69.3781 266.56 69.7447 265.16 70.4781C263.76 71.2114 262.577 72.1947 261.61 73.4281C260.644 74.6614 259.894 76.0448 259.36 77.5781C258.86 79.1114 258.61 80.6781 258.61 82.2781ZM174.715 104.478H162.915V135.028H157.265V104.478H145.415V99.5281H174.715V104.478ZM209.326 130.078V135.028H184.976V99.5281H208.876V104.478H190.576V114.578H206.426V119.228H190.576V130.078H209.326ZM220.652 135.028V99.5281H245.603V104.428H226.253V114.378H236.652C240.586 114.378 243.536 115.311 245.503 117.178C247.469 119.011 248.453 121.445 248.453 124.478C248.453 126.511 248.019 128.328 247.153 129.928C246.319 131.495 245.053 132.745 243.353 133.678C241.686 134.578 239.569 135.028 237.003 135.028H220.652ZM226.253 130.128H236.253C237.786 130.128 239.019 129.845 239.952 129.278C240.919 128.711 241.603 127.995 242.003 127.128C242.436 126.228 242.653 125.295 242.653 124.328C242.653 123.361 242.469 122.461 242.103 121.628C241.736 120.795 241.069 120.128 240.103 119.628C239.169 119.095 237.852 118.828 236.152 118.828H226.253V130.128ZM283.558 130.078V135.028H259.208V99.5281H283.108V104.478H264.808V114.578H280.658V119.228H264.808V130.078H283.558ZM174.59 134.528V170.028H168.94V154.378H151.04V170.028H145.44V134.528H151.04V149.378H168.94V134.528H174.59ZM193.849 134.528H199.149L212.949 170.028H207.049L203.299 160.378H189.599L185.899 170.028H179.949L193.849 134.528ZM202.199 156.228L196.499 140.678L190.599 156.228H202.199ZM212.739 176.828V165.078H214.439C215.372 165.078 216.172 164.711 216.839 163.978C217.539 163.245 218.122 162.078 218.589 160.478C219.089 158.878 219.472 156.778 219.739 154.178C220.039 151.545 220.256 148.328 220.389 144.528L220.639 134.528H243.489V165.078H247.989V176.828H243.039V170.028H217.689V176.828H212.739ZM221.539 165.078H237.839V139.478H225.839L225.689 145.278C225.589 149.111 225.389 152.361 225.089 155.028C224.789 157.661 224.355 159.795 223.789 161.428C223.222 163.061 222.472 164.278 221.539 165.078ZM269.712 170.278C267.145 170.278 264.829 169.778 262.762 168.778C260.695 167.778 258.912 166.428 257.412 164.728C255.912 162.995 254.745 161.061 253.912 158.928C253.112 156.761 252.712 154.545 252.712 152.278C252.712 149.911 253.145 147.661 254.012 145.528C254.879 143.361 256.079 141.445 257.612 139.778C259.145 138.078 260.945 136.745 263.012 135.778C265.112 134.778 267.379 134.278 269.812 134.278C272.345 134.278 274.645 134.795 276.712 135.828C278.812 136.861 280.595 138.245 282.062 139.978C283.562 141.711 284.712 143.645 285.512 145.778C286.345 147.911 286.762 150.095 286.762 152.328C286.762 154.695 286.329 156.961 285.462 159.128C284.629 161.261 283.445 163.178 281.912 164.878C280.379 166.545 278.562 167.861 276.462 168.828C274.395 169.795 272.145 170.278 269.712 170.278ZM258.412 152.278C258.412 153.945 258.679 155.561 259.212 157.128C259.745 158.695 260.495 160.095 261.462 161.328C262.462 162.528 263.662 163.478 265.062 164.178C266.462 164.878 268.029 165.228 269.762 165.228C271.562 165.228 273.162 164.861 274.562 164.128C275.962 163.395 277.129 162.411 278.062 161.178C279.029 159.911 279.762 158.511 280.262 156.978C280.762 155.411 281.012 153.845 281.012 152.278C281.012 150.611 280.745 149.011 280.212 147.478C279.712 145.911 278.962 144.528 277.962 143.328C276.962 142.095 275.762 141.128 274.362 140.428C272.995 139.728 271.462 139.378 269.762 139.378C267.962 139.378 266.362 139.745 264.962 140.478C263.562 141.211 262.379 142.195 261.412 143.428C260.445 144.661 259.695 146.045 259.162 147.578C258.662 149.111 258.412 150.678 258.412 152.278Z" fill="white"/>
</g>
<defs>
<clipPath id="clip0_1_39">
<rect width="148" height="114" fill="white" transform="translate(141 63.0281)"/>
</clipPath>
</defs>
</svg>
